<svg id="Layer_1" enable-background="new 0 0 64 64" viewBox="0 0 64 64" xmlns="http://www.w3.org/2000/svg"><g fill="currentColor"><path d="m51.6 25.1s.1-.1.1-.1l.2-.2c.2-.2.4-.4.7-.6.2-.2.4-.4.6-.6l1.6-1.5c.4-.4.6-1 .4-1.6-.1-.2-.2-.4-.3-.6-.5-.5-1.3-.6-1.9-.3-.1.1-.2.1-.3.2l-1.3 1.2c-4 3.6-7.9 7.1-11.9 10.7-.9.8-1.8 1.6-2.7 2.4-1.4 1.2-3.1 1.8-4.8 1.8s-3.3-.5-4.8-1.8c-.9-.8-1.8-1.6-2.7-2.4-4-3.6-7.9-7.1-11.9-10.7l-1.3-1.2c-.1-.1-.2-.1-.3-.2-.6-.4-1.4-.2-1.9.3-.2.2-.3.4-.3.6-.2.5 0 1.2.4 1.6l1.6 1.5.6.6c.2.2.4.4.7.6l.2.2s.1.1.1.1c1.9 1.8 3.9 3.5 5.8 5.2.7.6 1.4 1.3 2.2 2-.1.1-.2.2-.3.3-3.1 3.1-6.2 6.1-9.3 9.2-.1.1-.3.3-.4.4-.4.5-.4 1.2-.1 1.7.4.5 1 .8 1.6.5.3-.1.6-.3.8-.6 3.1-3 6.2-6.1 9.3-9.1.2-.2.3-.3.5-.5.9.8 1.7 1.5 2.5 2.2 1.6 1.5 3.6 2.4 5.8 2.6.4 0 .8.1 1.2.1s.8 0 1.2-.1c2.2-.2 4.1-1.2 5.8-2.6.8-.7 1.6-1.5 2.5-2.2.2.2.4.3.5.5 3.1 3 6.2 6.1 9.3 9.1.2.2.5.5.8.6.6.2 1.2 0 1.6-.5s.3-1.2-.1-1.7c-.1-.1-.3-.3-.4-.4-3.1-3.1-6.2-6.1-9.3-9.2-.1-.1-.2-.2-.3-.3.7-.7 1.4-1.3 2.2-2 1.9-1.7 3.9-3.4 5.8-5.2z"/><path d="m53.8 54.8h-43.6c-5 0-9.1-4.1-9.1-9.1v-27.4c0-5 4.1-9.1 9.1-9.1h43.7c5 0 9.1 4.1 9.1 9.1v27.4c-.1 5-4.1 9.1-9.2 9.1zm-43.6-42.2c-3.2 0-5.7 2.6-5.7 5.7v27.4c0 3.2 2.6 5.7 5.7 5.7h43.7c3.2 0 5.7-2.6 5.7-5.7v-27.4c0-3.2-2.6-5.7-5.7-5.7z"/></g></svg>